<svg xmlns="http://www.w3.org/2000/svg" width="335" height="458" viewBox="0 0 335 458" role="img" aria-labelledby="title desc">
  <title id="title">Promocion celulares Nicaragua</title>
  <desc id="desc">Afiche promocional de envios de celulares a Nicaragua por 80 USD con ahorro de 35 USD.</desc>
  <defs>
    <linearGradient id="sea" x1="0" y1="0" x2="1" y2="1">
      <stop offset="0%" stop-color="#7cd8ef"/>
      <stop offset="55%" stop-color="#2cb6d3"/>
      <stop offset="100%" stop-color="#ff8c2a"/>
    </linearGradient>
    <linearGradient id="sand" x1="0" y1="0" x2="0" y2="1">
      <stop offset="0%" stop-color="#ffd8a6"/>
      <stop offset="100%" stop-color="#f5b56d"/>
    </linearGradient>
    <filter id="shadow" x="-20%" y="-20%" width="140%" height="140%">
      <feDropShadow dx="0" dy="5" stdDeviation="4" flood-color="#8a3b00" flood-opacity="0.28"/>
    </filter>
  </defs>

  <rect width="335" height="458" fill="url(#sea)"/>
  <rect x="0" y="339" width="335" height="119" fill="#ff6f22"/>
  <path d="M0 312 C66 281, 136 318, 194 295 C247 274, 291 299, 335 260 L335 458 L0 458 Z" fill="#ff9d31" opacity="0.78"/>
  <circle cx="150" cy="333" r="18" fill="#ffbe59" opacity="0.72"/>
  <circle cx="136" cy="352" r="11" fill="#f59f32" opacity="0.5"/>

  <g opacity="0.45">
    <rect x="7" y="0" width="22" height="120" rx="3" fill="#ffffff"/>
    <rect x="31" y="0" width="18" height="135" rx="3" fill="#ffffff"/>
    <rect x="51" y="0" width="31" height="128" rx="3" fill="#ffffff"/>
    <rect x="84" y="0" width="14" height="112" rx="3" fill="#ffffff"/>
    <rect x="233" y="0" width="18" height="126" rx="3" fill="#ffffff"/>
    <rect x="253" y="0" width="27" height="154" rx="3" fill="#ffffff"/>
    <rect x="282" y="0" width="15" height="118" rx="3" fill="#ffffff"/>
    <rect x="299" y="0" width="29" height="141" rx="3" fill="#ffffff"/>
  </g>

  <g transform="translate(133 18)">
    <ellipse cx="38" cy="18" rx="35" ry="15" fill="#ffffff" opacity="0.82"/>
    <path d="M31 4 C43 -8, 58 4, 58 18 C58 30, 47 40, 35 40 C20 40, 7 27, 12 13 C17 1, 24 -2, 31 4 Z" fill="#ffae3c" stroke="#4c2800" stroke-width="1.4"/>
    <text x="38" y="22" text-anchor="middle" font-family="Arial, sans-serif" font-size="15" font-weight="700" fill="#1d1d1d">Panorama</text>
  </g>

  <g filter="url(#shadow)">
    <text x="167" y="111" text-anchor="middle" font-family="Arial, sans-serif" font-size="25" font-weight="900" fill="#ffffff">ENVIOS A</text>
    <text x="167" y="154" text-anchor="middle" font-family="Arial, sans-serif" font-size="52" font-weight="900" fill="#ffffff">NICARAGUA</text>
    <text x="167" y="161" text-anchor="middle" font-family="Arial, sans-serif" font-size="52" font-weight="900" fill="#ff7b22">NICARAGUA</text>
  </g>

  <text x="167" y="188" text-anchor="middle" font-family="Arial, sans-serif" font-size="15" font-weight="800" fill="#ffe8a3">PROMOCION EXCLUSIVA PARA ENVIOS DE</text>
  <text x="167" y="208" text-anchor="middle" font-family="Arial, sans-serif" font-size="18" font-weight="900" fill="#ffecb9">CELULARES</text>

  <g transform="translate(23 228) rotate(-12)" filter="url(#shadow)">
    <text x="0" y="0" font-family="Arial, sans-serif" font-size="13" font-weight="900" fill="#fff7b7">PRECIO ESPECIAL</text>
    <text x="0" y="34" font-family="Arial, sans-serif" font-size="32" font-weight="900" fill="#ffffff">$80</text>
    <text x="3" y="37" font-family="Arial, sans-serif" font-size="32" font-weight="900" fill="#ff7a1e">$80</text>
    <text x="73" y="32" font-family="Arial, sans-serif" font-size="13" font-weight="900" fill="#fff7b7">USD</text>
  </g>

  <g transform="translate(37 253)">
    <polygon points="0,44 16,9 54,0 92,10 107,46 83,78 24,84" fill="#ffb338" stroke="#ff7a1e" stroke-width="4"/>
    <text x="52" y="27" text-anchor="middle" font-family="Arial, sans-serif" font-size="14" font-weight="900" fill="#ffffff" transform="rotate(-14 52 27)">AHORRA</text>
    <text x="52" y="67" text-anchor="middle" font-family="Arial, sans-serif" font-size="31" font-weight="900" fill="#ffffff" transform="rotate(-14 52 67)">$35</text>
    <text x="91" y="70" font-family="Arial, sans-serif" font-size="12" font-weight="900" fill="#ffffff" transform="rotate(-14 91 70)">USD</text>
  </g>

  <g transform="translate(224 224)">
    <polygon points="0,58 38,42 96,44 123,132 18,132" fill="url(#sand)" stroke="#c78553" stroke-width="2"/>
    <polygon points="38,42 55,24 114,28 96,44" fill="#f4d2a7" stroke="#c78553" stroke-width="2"/>
    <polygon points="0,58 18,39 55,24 38,42" fill="#f7c997" stroke="#c78553" stroke-width="2"/>
    <rect x="18" y="30" width="25" height="65" rx="4" fill="#2c2f33" transform="rotate(-16 18 30)"/>
    <rect x="44" y="26" width="27" height="69" rx="4" fill="#7b8a9c" transform="rotate(-9 44 26)"/>
    <rect x="72" y="22" width="31" height="74" rx="4" fill="#d9762c" transform="rotate(4 72 22)"/>
    <circle cx="86" cy="34" r="4" fill="#111"/>
    <circle cx="95" cy="43" r="4" fill="#111"/>
    <circle cx="79" cy="46" r="4" fill="#111"/>
  </g>

  <g fill="#ffffff" font-family="Arial, sans-serif" font-weight="800" font-size="15">
    <circle cx="51" cy="352" r="8" fill="#ffd16f"/>
    <text x="47" y="357" font-size="11">✓</text>
    <text x="63" y="358">Seguro</text>
    <circle cx="145" cy="352" r="8" fill="#ffd16f"/>
    <text x="141" y="357" font-size="11">✓</text>
    <text x="157" y="358">Rapido</text>
    <circle cx="240" cy="352" r="8" fill="#ffd16f"/>
    <text x="236" y="357" font-size="11">✓</text>
    <text x="252" y="358">Confiable</text>
  </g>

  <text x="167" y="391" text-anchor="middle" font-family="Arial, sans-serif" font-size="17" font-weight="900" fill="#ffffff">CONTACTANOS YA MISMO!</text>

  <g fill="#ffffff" font-family="Arial, sans-serif" font-weight="900">
    <circle cx="33" cy="414" r="10" fill="#ffffff" opacity="0.18"/>
    <text x="27" y="419" font-size="14">☎</text>
    <text x="52" y="420" font-size="17">786-690-8615</text>
    <circle cx="33" cy="440" r="10" fill="#ffffff" opacity="0.18"/>
    <text x="27" y="445" font-size="14">☎</text>
    <text x="52" y="446" font-size="17">305-225-7111</text>
  </g>

  <g transform="translate(230 401)">
    <rect width="90" height="42" rx="9" fill="#fff0d8"/>
    <text x="45" y="17" text-anchor="middle" font-family="Arial, sans-serif" font-size="11" font-weight="900" fill="#ef6c17">RETIRO EN</text>
    <text x="45" y="29" text-anchor="middle" font-family="Arial, sans-serif" font-size="11" font-weight="900" fill="#ef6c17">OFICINA DE</text>
    <text x="45" y="41" text-anchor="middle" font-family="Arial, sans-serif" font-size="11" font-weight="900" fill="#ef6c17">MANAGUA</text>
  </g>

  <text x="167" y="432" text-anchor="middle" font-family="Arial, sans-serif" font-size="9" fill="#fff7df">*Promocion por tiempo limitado, hasta el 30 de abril del 2026</text>
  <text x="167" y="442" text-anchor="middle" font-family="Arial, sans-serif" font-size="9" fill="#fff7df">Aplican terminos y condiciones</text>

  <rect y="444" width="335" height="14" fill="#ef5d17"/>
  <g fill="#ffffff" font-family="Arial, sans-serif" font-size="9" font-weight="700">
    <circle cx="39" cy="451" r="5" fill="#2c7be5"/>
    <text x="36.3" y="454.2" font-size="7.5">f</text>
    <text x="49" y="454">Panoramatravelofficial</text>
    <circle cx="175" cy="451" r="5" fill="#111"/>
    <text x="171.8" y="454.2" font-size="7">◎</text>
    <text x="185" y="454">PanoramaTravel.official</text>
  </g>
</svg>
