<svg xmlns="http://www.w3.org/2000/svg" width="48" height="48" viewBox="0 0 48 48" role="img" aria-label="WhatsApp">
  <circle cx="24" cy="24" r="23" fill="#25D366" />
  <path d="M16 34l1.8-5.5a12 12 0 1110.2 4.5 11.7 11.7 0 01-5.4-1.3L16 34z" fill="#1EBE5A" />
  <path d="M20.4 15.5c-.3-.7-.6-.7-.9-.7h-.8c-.3 0-.7.1-1 .5-.3.4-1.3 1.3-1.3 3.2s1.4 3.7 1.6 4c.2.3 2.7 4.3 6.7 5.9 3.3 1.3 4 1 4.7.9.7-.1 2.3-1 2.6-2 .3-1 .3-1.9.2-2-.1-.2-.3-.3-.6-.5-.3-.2-2.3-1.1-2.6-1.3-.3-.1-.6-.2-.9.2-.3.4-1 1.3-1.2 1.5-.2.2-.4.3-.7.1-.3-.2-1.4-.5-2.6-1.6-1-.9-1.6-2-1.8-2.4-.2-.3 0-.5.1-.6.1-.1.3-.3.4-.5.1-.2.2-.3.3-.5.1-.2.1-.4 0-.6-.1-.2-.9-2.2-1.2-2.9z" fill="#ffffff" />
</svg>
